<?xml version="1.0" encoding="UTF-8" standalone="no"?>
<!-- Generator: Adobe Illustrator 21.0.0, SVG Export Plug-In . SVG Version: 6.00 Build 0)  -->

<svg
   xmlns:dc="http://purl.org/dc/elements/1.1/"
   xmlns:cc="http://creativecommons.org/ns#"
   xmlns:rdf="http://www.w3.org/1999/02/22-rdf-syntax-ns#"
   xmlns:svg="http://www.w3.org/2000/svg"
   xmlns="http://www.w3.org/2000/svg"
   xmlns:sodipodi="http://sodipodi.sourceforge.net/DTD/sodipodi-0.dtd"
   xmlns:inkscape="http://www.inkscape.org/namespaces/inkscape"
   version="1.1"
   id="Layer_1"
   x="0px"
   y="0px"
   viewBox="0 0 128 127.75004"
   xml:space="preserve"
   sodipodi:docname="icon.svg"
   width="128"
   height="127.75004"
   inkscape:version="0.92.1 r"><metadata
     id="metadata17"><rdf:RDF><cc:Work
         rdf:about=""><dc:format>image/svg+xml</dc:format><dc:type
           rdf:resource="http://purl.org/dc/dcmitype/StillImage" /><dc:title></dc:title></cc:Work></rdf:RDF></metadata><defs
     id="defs15" /><sodipodi:namedview
     pagecolor="#ffffff"
     bordercolor="#666666"
     borderopacity="1"
     objecttolerance="10"
     gridtolerance="10"
     guidetolerance="10"
     inkscape:pageopacity="0"
     inkscape:pageshadow="2"
     inkscape:window-width="1366"
     inkscape:window-height="705"
     id="namedview13"
     showgrid="false"
     fit-margin-top="0"
     fit-margin-left="0"
     fit-margin-right="0"
     fit-margin-bottom="0"
     inkscape:zoom="2.2835027"
     inkscape:cx="46.306867"
     inkscape:cy="59.576694"
     inkscape:window-x="0"
     inkscape:window-y="0"
     inkscape:window-maximized="1"
     inkscape:current-layer="Layer_1" /><style
     type="text/css"
     id="style2">
	.st0{fill:none;}
</style><g
     id="g4502"
     transform="matrix(0.82964953,0,0,0.82964953,213.90048,-27.194663)"
     inkscape:export-xdpi="90"
     inkscape:export-ydpi="90"><path
       sodipodi:nodetypes="ccccccccccccc"
       style="fill:#ffffff;stroke-width:1.11678588"
       inkscape:connector-curvature="0"
       id="path4498"
       d="m -103.7717,130.76443 -55.8393,55.72762 c -0.22336,0.22336 -0.55839,0.33504 -0.78175,0.22336 l -76.27648,-20.43718 c -0.33503,-0.11168 -0.55839,-0.33504 -0.55839,-0.5584 l -20.54886,-76.1648 c -0.11168,-0.335036 0,-0.558393 0.22336,-0.78175 l 55.83929,-55.727616 c 0.22336,-0.223357 0.5584,-0.335036 0.78175,-0.223357 l 76.27648,20.437181 c 0.33504,0.111679 0.55839,0.335036 0.55839,0.558393 l 20.43718,76.164799 c 0.22336,0.33504 0.11168,0.5584 -0.11167,0.78175 z" /><path
       d="m -111.81418,128.56886 -50,49.9 c -0.2,0.2 -0.5,0.3 -0.7,0.2 l -68.3,-18.3 c -0.3,-0.1 -0.5,-0.3 -0.5,-0.5 l -18.4,-68.200005 c -0.1,-0.3 0,-0.5 0.2,-0.7 l 50,-49.9 c 0.2,-0.2 0.5,-0.3 0.7,-0.2 l 68.3,18.3 c 0.3,0.1 0.5,0.3 0.5,0.5 l 18.3,68.200005 c 0.2,0.3 0.1,0.5 -0.1,0.7 z m -67,-54.300005 -67.1,17.9 c -0.1,0 -0.2,0.2 -0.1,0.3 l 49.1,49.000005 c 0.1,0.1 0.3,0.1 0.3,-0.1 l 18,-67.000005 c 0.1,0 -0.1,-0.2 -0.2,-0.1 z"
       id="path4"
       inkscape:connector-curvature="0" /></g></svg>